{"title":"The Artist (2011) DVDScr rus fr Russian external subtitles!","uid":6976887,"size":1560777427,"categoryP":"video","categoryS":"movies","magnet":"?xt=urn:btih:307c5336263a7dbe060fc09c8bbbf5506de44236&amp;dn=The+Artist+%282011%29+DVDScr+rus+fr+Russian+external+subtitles%21&amp;tr=udp%3A%2F%2Ftracker.openbittorrent.com%3A80&amp;tr=udp%3A%2F%2Fopen.demonii.com%3A1337&amp;tr=udp%3A%2F%2Ftracker.coppersurfer.tk%3A6969&amp;tr=udp%3A%2F%2Fexodus.desync.com%3A6969","seeders":1,"leechers":0,"uploader":"skribent","files":-1,"time":1327288162,"description":"The Artist (2011) PG-13 \n\nHollywood, 1927: As silent movie star George Valentin wonders if the arrival \nof talking pictures will cause him to fade into oblivion, he sparks with Peppy Miller, a young dancer set for a big break.\n\n\nRussian external subtitles!\n\nRussian external subtitles!\n\nRussian external subtitles!\n\n\nGeneral\nComplete name                    : Artist.2011.DVDScr.sub.avi\nFormat                           : AVI\nFormat/Info                      : Audio Video Interleave\nFile size                        : 1.45 GiB\nDuration                         : 1h 36mn\nOverall bit rate                 : 2 165 Kbps\nMovie name                       : The Artist\nDirector                         : Michel Hazanavicius\nGenre                            : Drama / Romance\nWriting application              : VirtualDubMod 1.5.10.3 | www.virtualdub-fr.org || (build 2550/release)\nOriginal source form/Name        : Movie\nCopyright                        : http://upload.by/\nComment                          : by demon1\n\nVideo\nID                               : 0\nFormat                           : MPEG-4 Visual\nFormat profile                   : Advanced Simple@L5\nFormat settings, BVOP            : 1\nFormat settings, QPel            : No\nFormat settings, GMC             : No warppoints\nFormat settings, Matrix          : Custom\nCodec ID                         : XVID\nCodec ID/Hint                    : XviD\nDuration                         : 1h 36mn\nBit rate                         : 1 963 Kbps\nWidth                            : 704 pixels\nHeight                           : 528 pixels\nDisplay aspect ratio             : 4:3\nFrame rate                       : 25.000 fps\nColor space                      : YUV\nChroma subsampling               : 4:2:0\nBit depth                        : 8 bits\nScan type                        : Progressive\nCompression mode                 : Lossy\nBits/(Pixel*Frame)               : 0.211\nStream size                      : 1.32 GiB (91%)\nWriting library                  : XviD 64\n\nAudio\nID                               : 1\nFormat                           : AC-3\nFormat/Info                      : Audio Coding 3\nMode extension                   : CM (complete main)\nCodec ID                         : 2000\nDuration                         : 1h 36mn\nBit rate mode                    : Constant\nBit rate                         : 192 Kbps\nChannel(s)                       : 2 channels\nChannel positions                : Front: L R\nSampling rate                    : 48.0 KHz\nBit depth                        : 16 bits\nCompression mode                 : Lossy\nStream size                      : 132 MiB (9%)\nAlignment                        : Split accross interleaves\nInterleave, duration             : 40 ms (1.00 video frame)\nInterleave, preload duration     : 500 ms\n\n\n\nVideo Source  MULTI DVD-R 2012 NYKOLA06... Thanks\nAudio Source  MULTI DVD-R 2012 NYKOLA06... Thanks\n\nScreenshots: \n &lt;a href=&quot;\nhttp://bayimg.com/haMmpAAdb&quot; rel=&quot;nofollow&quot; target=&quot;_NEW&quot;&gt;\nhttp://bayimg.com/haMmpAAdb&lt;/a&gt;\n &lt;a href=&quot;\nhttp://bayimg.com/iaMmaaAdb&quot; rel=&quot;nofollow&quot; target=&quot;_NEW&quot;&gt;\nhttp://bayimg.com/iaMmaaAdb&lt;/a&gt;\n &lt;a href=&quot;\nhttp://bayimg.com/iAMmbAAdB&quot; rel=&quot;nofollow&quot; target=&quot;_NEW&quot;&gt;\nhttp://bayimg.com/iAMmbAAdB&lt;/a&gt;\n\n\nSample:\n\n\nComparison: http://www.check2pic.ru/compare/7475/3/\n\n\nRussian external subtitles!\n\nRussian external subtitles!\n\nRussian external subtitles!","torrent":{"xt":"urn:btih:307c5336263a7dbe060fc09c8bbbf5506de44236","amp;dn":"The+Artist+%282011%29+DVDScr+rus+fr+Russian+external+subtitles%21","amp;tr":["udp%3A%2F%2Ftracker.openbittorrent.com%3A80","udp%3A%2F%2Fopen.demonii.com%3A1337","udp%3A%2F%2Ftracker.coppersurfer.tk%3A6969","udp%3A%2F%2Fexodus.desync.com%3A6969"],"infoHash":"307c5336263a7dbe060fc09c8bbbf5506de44236","infoHashBuffer":{"type":"Buffer","data":[48,124,83,54,38,58,125,190,6,15,192,156,139,187,245,80,109,228,66,54]},"announce":[],"urlList":[]}}